# Blender v2.79 (sub 0) OBJ File: ''
# www.blender.org
o Cube_Cube.001
v -1.109773 -0.996512 1.244237
v -1.109773 1.003488 1.244237
v -1.109620 -0.996512 -0.773215
v -1.109620 1.003488 -0.773215
v 0.890227 -0.996512 1.244237
v 0.890227 1.003488 1.244237
v 0.890075 -0.996512 -0.738310
v 0.890075 1.003488 -0.738310
vt 0.999562 0.991593
vt 0.000438 -0.000242
vt 1.000239 0.000441
vt 0.999900 0.999900
vt 0.000100 0.000100
vt 0.999900 0.000100
vt 0.999900 0.999900
vt 0.000100 0.000100
vt 0.999900 0.000100
vt 0.999900 0.999900
vt 0.000100 0.000100
vt 0.999900 0.000100
vt 1.000000 0.000000
vt 0.000000 1.000000
vt 0.000000 0.000000
vt 0.000100 0.000100
vt 0.999900 0.000100
vt -0.000239 0.990910
vt 0.000100 0.999900
vt 0.000100 0.999900
vt 0.000100 0.999900
vt 1.000000 1.000000
vt 0.000100 0.999900
vn -1.0000 0.0000 -0.0001
vn 0.0175 0.0000 -0.9998
vn 1.0000 0.0000 -0.0001
vn 0.0000 0.0000 1.0000
vn 0.0000 -1.0000 0.0000
vn 0.0000 1.0000 0.0000
s off
f 2/1/1 3/2/1 1/3/1
f 4/4/2 7/5/2 3/6/2
f 8/7/3 5/8/3 7/9/3
f 6/10/4 1/11/4 5/12/4
f 7/13/5 1/14/5 3/15/5
f 8/7/6 2/16/6 6/17/6
f 2/1/1 4/18/1 3/2/1
f 4/4/2 8/19/2 7/5/2
f 8/7/3 6/20/3 5/8/3
f 6/10/4 2/21/4 1/11/4
f 7/13/5 5/22/5 1/14/5
f 8/7/6 4/23/6 2/16/6
